<!-- Generated by IcoMoon.io -->
<svg version="1.1" xmlns="http://www.w3.org/2000/svg" width="32" height="32" viewBox="0 0 32 32">
<title>close</title>
<path d="M19.69 16l11.559-11.559c1.012-1.012 1.012-2.678 0-3.69s-2.678-1.012-3.69 0l-11.559 11.559-11.559-11.559c-1.012-1.012-2.678-1.012-3.69 0s-1.012 2.678 0 3.69l11.559 11.559-11.559 11.559c-1.012 1.012-1.012 2.678 0 3.69 0.522 0.49 1.175 0.751 1.861 0.751s1.339-0.261 1.861-0.751l11.527-11.559 11.559 11.559c0.49 0.49 1.175 0.751 1.829 0.751s1.339-0.261 1.861-0.751c1.012-1.012 1.012-2.678 0-3.69l-11.559-11.559z"></path>
</svg>
