<!-- Generated by IcoMoon.io -->
<svg version="1.1" xmlns="http://www.w3.org/2000/svg" width="32" height="32" viewBox="0 0 32 32">
<title>file</title>
<path d="M27.52 7.68l-6.080-6.4c-0.96-0.64-2.24-1.28-3.52-1.28h-9.92c-2.56 0-4.8 2.24-4.8 4.8v22.4c0 2.56 2.24 4.8 4.8 4.8h16c2.56 0 4.8-2.24 4.8-4.8v-16.32c0-0.96-0.64-2.24-1.28-3.2zM20.8 5.44l2.56 2.56h-2.56v-2.56zM24 28.8h-16c-0.96 0-1.6-0.64-1.6-1.6v-22.4c0-0.96 0.64-1.6 1.6-1.6h9.6v6.72c0 0.96 0.64 1.6 1.6 1.6h6.4v15.68c0 0.96-0.64 1.6-1.6 1.6z"></path>
</svg>
