<!-- Generated by IcoMoon.io -->
<svg version="1.1" xmlns="http://www.w3.org/2000/svg" width="30" height="32" viewBox="0 0 30 32">
<title>lib</title>
<path d="M29.12 7.68l-6.080-6.4c-0.96-0.64-2.24-1.28-3.52-1.28h-9.92c-2.56 0-4.8 2.24-4.8 4.8v4.8h3.2v-4.8c0-0.96 0.64-1.6 1.6-1.6h9.6v6.72c0 0.96 0.64 1.6 1.6 1.6h6.4v15.68c0 0.96-0.64 1.6-1.6 1.6h-16c-0.96 0-1.6-0.64-1.6-1.6h-3.2c0 2.56 2.24 4.8 4.8 4.8h16c2.56 0 4.8-2.24 4.8-4.8v-16.32c0-0.96-0.64-2.24-1.28-3.2zM22.4 8v-2.56l2.56 2.56h-2.56z"></path>
<path d="M6.080 20.48h-4.16v-7.36h-1.92v8.96h6.080z"></path>
<path d="M17.28 15.36c0-0.96-0.32-1.28-0.96-1.92-0.32-0.32-1.28-0.32-2.24-0.32h-3.2v8.96h3.52c0.96 0 1.92-0.32 2.24-0.64 0.64-0.32 0.96-0.96 0.96-1.92 0-0.64 0-0.96-0.32-1.28-0.32-0.64-0.64-0.64-1.28-0.96v0c0.32 0 0.64-0.32 0.96-0.64s0.32-0.64 0.32-1.28zM12.8 14.4h1.28c0.64 0 0.96 0 1.28 0.32s0.32 0.32 0.32 0.96-0.32 0.96-1.28 1.28h-1.6v-2.56zM15.36 20.16c-0.32 0.32-0.64 0.32-0.96 0.32h-1.6v-2.24h1.6c0.96 0 1.28 0.32 1.28 1.28 0 0.32 0 0.64-0.32 0.64z"></path>
<path d="M7.040 13.12h1.92v8.96h-1.92v-8.96z"></path>
</svg>
