<!-- Generated by IcoMoon.io -->
<svg version="1.1" xmlns="http://www.w3.org/2000/svg" width="37" height="32" viewBox="0 0 37 32">
<title>logo</title>
<path d="M18.651 32c-0.247-0-0.463-0.134-0.58-0.333l-0.002-0.003-9.256-16.032c-0.057-0.096-0.090-0.212-0.090-0.336 0-0.371 0.301-0.672 0.672-0.672h18.513c0.371 0 0.672 0.301 0.672 0.672 0 0.124-0.033 0.24-0.092 0.339l0.002-0.003-9.256 16.032c-0.118 0.202-0.334 0.336-0.582 0.336v0zM10.56 15.968l8.092 14.016 8.092-14.016z"></path>
<path d="M36.63 30.72h-13.302c-0.371-0-0.672-0.301-0.672-0.672 0-0.124 0.033-0.24 0.092-0.339l-0.002 0.003 6.651-11.52c0.118-0.202 0.334-0.336 0.582-0.336s0.463 0.134 0.58 0.332l0.002 0.003 6.651 11.52c0.057 0.096 0.090 0.212 0.090 0.336 0 0.371-0.301 0.672-0.672 0.672v0zM24.492 29.376h10.975l-5.487-9.504z"></path>
<path d="M25.302 12.864h-13.302c-0.371-0-0.672-0.301-0.672-0.672 0-0.124 0.033-0.24 0.092-0.339l-0.002 0.003 6.651-11.52c0.118-0.202 0.334-0.336 0.582-0.336s0.463 0.134 0.58 0.332l0.002 0.003 6.651 11.52c0.057 0.096 0.090 0.212 0.090 0.336 0 0.371-0.301 0.672-0.672 0.672v0zM13.164 11.52h10.975l-5.487-9.504z"></path>
<path d="M13.974 30.72h-13.302c-0.371-0-0.672-0.301-0.672-0.672 0-0.124 0.033-0.24 0.092-0.339l-0.002 0.003 6.651-11.52c0.118-0.202 0.335-0.336 0.582-0.336s0.463 0.134 0.58 0.332l0.002 0.003 6.651 11.52c0.057 0.096 0.090 0.212 0.090 0.336 0 0.371-0.301 0.672-0.672 0.672v0zM1.836 29.376h10.975l-5.487-9.504z"></path>
</svg>
