<!-- Generated by IcoMoon.io -->
<svg version="1.1" xmlns="http://www.w3.org/2000/svg" width="32" height="32" viewBox="0 0 32 32">
<title>stop</title>
<path d="M8.889 3.556c-2.844 0-5.333 2.489-5.333 5.333v14.222c0 2.844 2.489 5.333 5.333 5.333h14.222c2.844 0 5.333-2.489 5.333-5.333v-14.222c0-2.844-2.489-5.333-5.333-5.333h-14.222zM8.889 0h14.222c4.978 0 8.889 3.911 8.889 8.889v14.222c0 4.978-3.911 8.889-8.889 8.889h-14.222c-4.978 0-8.889-3.911-8.889-8.889v-14.222c0-4.978 3.911-8.889 8.889-8.889z"></path>
</svg>
