<!-- Generated by IcoMoon.io -->
<svg version="1.1" xmlns="http://www.w3.org/2000/svg" width="22" height="32" viewBox="0 0 22 32">
<title>trash</title>
<path d="M6.107 12.458c-0.733 0-1.221 0.733-1.221 1.221v9.771c0 0.733 0.489 1.221 1.221 1.221s1.221-0.489 1.221-1.221v-9.771c0-0.489-0.489-1.221-1.221-1.221z"></path>
<path d="M10.992 10.015c-0.733 0-1.221 0.733-1.221 1.221v14.656c0 0.733 0.489 1.221 1.221 1.221s1.221-0.489 1.221-1.221v-14.656c0-0.489-0.489-1.221-1.221-1.221z"></path>
<path d="M15.878 12.458c-0.733 0-1.221 0.733-1.221 1.221v9.771c0 0.733 0.489 1.221 1.221 1.221s1.221-0.489 1.221-1.221v-9.771c0-0.489-0.489-1.221-1.221-1.221z"></path>
<path d="M18.321 5.13v-0.244c0-2.687-2.198-4.886-4.886-4.886h-4.886c-2.687 0-4.886 2.198-4.886 4.886v0.244h-3.664v21.985c0 2.687 2.198 4.886 4.886 4.886h12.214c2.687 0 4.886-2.198 4.886-4.886v-21.985h-3.664zM6.107 4.886c0-1.466 0.977-2.443 2.443-2.443h4.886c1.466 0 2.443 0.977 2.443 2.443v0.244h-9.771v-0.244zM19.542 27.114c0 1.466-0.977 2.443-2.443 2.443h-12.214c-1.466 0-2.443-0.977-2.443-2.443v-19.542h17.099v19.542z"></path>
</svg>
