<!-- Generated by IcoMoon.io -->
<svg version="1.1" xmlns="http://www.w3.org/2000/svg" width="32" height="32" viewBox="0 0 32 32">
<title>autorenew</title>
<path d="M16 8v2.387c0 0.6 0.72 0.893 1.133 0.467l3.72-3.72c0.267-0.267 0.267-0.68 0-0.947l-3.72-3.72c-0.413-0.413-1.133-0.12-1.133 0.48v2.387c-5.893 0-10.667 4.773-10.667 10.667 0 1.387 0.267 2.72 0.76 3.933 0.36 0.893 1.507 1.133 2.187 0.453v0c0.36-0.36 0.507-0.907 0.307-1.387-0.387-0.92-0.587-1.947-0.587-3 0-4.413 3.587-8 8-8zM23.72 11.613v0c-0.36 0.36-0.507 0.92-0.307 1.387 0.373 0.933 0.587 1.947 0.587 3 0 4.413-3.587 8-8 8v-2.387c0-0.6-0.72-0.893-1.133-0.467l-3.72 3.72c-0.267 0.267-0.267 0.68 0 0.947l3.72 3.72c0.413 0.413 1.133 0.12 1.133-0.467v-2.4c5.893 0 10.667-4.773 10.667-10.667 0-1.387-0.267-2.72-0.76-3.933-0.36-0.893-1.507-1.133-2.187-0.453z"></path>
</svg>
