<!-- Generated by IcoMoon.io -->
<svg version="1.1" xmlns="http://www.w3.org/2000/svg" width="32" height="32" viewBox="0 0 32 32">
<title>layout</title>
<path d="M27.636 4.364h-23.273c-2.327 0-4.364 2.036-4.364 4.364v14.545c0 2.327 2.036 4.364 4.364 4.364h23.273c2.327 0 4.364-2.036 4.364-4.364v-14.545c0-2.327-2.036-4.364-4.364-4.364zM2.909 23.273v-8.727h11.636v10.182h-10.182c-0.873 0-1.455-0.582-1.455-1.455zM29.091 23.273c0 0.873-0.582 1.455-1.455 1.455h-10.182v-10.182h11.636v8.727zM29.091 11.636h-26.182v-2.909c0-0.873 0.582-1.455 1.455-1.455h23.273c0.873 0 1.455 0.582 1.455 1.455v2.909z"></path>
</svg>
