<?xml version="1.0" encoding="utf-8"?>
<!-- Generator: Adobe Illustrator 21.1.0, SVG Export Plug-In . SVG Version: 6.00 Build 0)  -->
<svg version="1.1" id="Layer_1" xmlns="http://www.w3.org/2000/svg" xmlns:xlink="http://www.w3.org/1999/xlink" x="0px" y="0px"
	 viewBox="0 0 32 32" style="enable-background:new 0 0 32 32;" xml:space="preserve">
<title>file</title>
<path d="M27.5,7.7l-6.1-6.4c-1-0.6-2.2-1.3-3.5-1.3H8C5.4,0,3.2,2.2,3.2,4.8v22.4C3.2,29.8,5.4,32,8,32h16c2.6,0,4.8-2.2,4.8-4.8
	V10.9C28.8,9.9,28.2,8.6,27.5,7.7z M24,28.8H8c-1,0-1.6-0.6-1.6-1.6V4.8c0-1,0.6-1.6,1.6-1.6h9.6v6.7c0,1,0.6,1.6,1.6,1.6h6.4v15.7
	C25.6,28.2,25,28.8,24,28.8z"/>
<g>
	<path d="M14,17c-0.3-0.3-0.8-0.3-1.1,0l-2.5,2.5c-0.1,0.1-0.1,0.2-0.2,0.2c-0.1,0.3-0.1,0.6,0.2,0.8c0,0,0,0,0,0L13,23
		c0.1,0.1,0.3,0.2,0.5,0.2s0.4-0.1,0.5-0.2c0.3-0.3,0.3-0.8,0-1.1l-2-2l2-2C14.3,17.7,14.3,17.3,14,17z"/>
	<path d="M21.3,19.5L18.8,17c-0.3-0.3-0.8-0.3-1.1,0c-0.3,0.3-0.3,0.8,0,1.1l2,2l-2,2c-0.3,0.3-0.3,0.8,0,1.1
		c0.1,0.1,0.3,0.2,0.5,0.2c0.2,0,0.4-0.1,0.5-0.2l2.5-2.5C21.6,20.2,21.6,19.8,21.3,19.5z"/>
</g>
</svg>
