<!-- Generated by IcoMoon.io -->
<svg version="1.1" xmlns="http://www.w3.org/2000/svg" width="32" height="32" viewBox="0 0 32 32">
<title>play</title>
<path d="M7.111 28.444c0.356 0 0.711 0 1.067-0.356l17.422-10.311c0.711-0.356 1.067-1.067 1.067-1.778s-0.356-1.422-1.067-1.778l-17.422-10.311c-0.356-0.356-1.067-0.356-1.778 0s-1.067 1.067-1.067 1.778v20.978c0 0.711 0.356 1.422 1.067 1.778 0.356 0 0.356 0 0.711 0zM7.111 32c-0.711 0-1.778-0.356-2.489-0.711-1.778-1.067-2.844-2.844-2.844-4.978v-20.622c0-2.133 1.067-3.911 2.844-4.978s3.911-1.067 5.689 0l17.422 10.311c1.422 1.067 2.489 2.844 2.489 4.978 0 1.778-1.067 3.911-2.844 4.978l-17.422 10.311c-0.711 0.356-1.778 0.711-2.844 0.711z"></path>
</svg>
