<!-- Generated by IcoMoon.io -->
<svg version="1.1" xmlns="http://www.w3.org/2000/svg" width="32" height="32" viewBox="0 0 32 32">
<title>tabs</title>
<path d="M27.636 2.909h-23.273c-2.327 0-4.364 2.036-4.364 4.364v16c0 2.327 2.036 4.364 4.364 4.364h23.273c2.327 0 4.364-2.036 4.364-4.364v-16c0-2.327-2.036-4.364-4.364-4.364zM27.636 5.818c0.873 0 1.455 0.582 1.455 1.455v2.909h-11.636v-4.364h10.182zM27.636 24.727h-23.273c-0.873 0-1.455-0.582-1.455-1.455v-16c0-0.873 0.582-1.455 1.455-1.455h10.182v5.818c0 0.873 0.582 1.455 1.455 1.455h13.091v10.182c0 0.873-0.582 1.455-1.455 1.455z"></path>
</svg>
