<!-- Generated by IcoMoon.io -->
<svg version="1.1" xmlns="http://www.w3.org/2000/svg" width="32" height="32" viewBox="0 0 32 32">
<title>windows</title>
<path d="M28.062 8.615h-1.477v-1.231c0-1.969-1.723-3.692-3.692-3.692h-19.2c-1.969 0-3.692 1.723-3.692 3.692v12.308c0 1.969 1.723 3.692 3.692 3.692h1.477v1.231c0 1.969 1.723 3.692 3.692 3.692h19.446c1.969 0 3.692-1.723 3.692-3.692v-12.308c-0.246-2.215-1.723-3.692-3.938-3.692zM5.169 20.923h-1.477c-0.738 0-1.231-0.492-1.231-1.231v-7.385h2.708v8.615zM5.415 11.077v0 0zM5.908 9.846h-3.446v-2.462c0-0.738 0.492-1.231 1.231-1.231h19.446c0.738 0 1.231 0.492 1.231 1.231v1.231h-15.508c-1.231 0-2.215 0.492-2.954 1.231zM29.292 24.615c0 0.738-0.492 1.231-1.231 1.231h-19.2c-0.738 0-1.231-0.492-1.231-1.231v-7.385h21.662v7.385zM29.292 14.769h-21.662v-2.462c0-0.738 0.492-1.231 1.231-1.231h19.446c0.738 0 1.231 0.492 1.231 1.231v2.462h-0.246z"></path>
</svg>
